<svg id="visual" viewBox="0 0 900 900" width="900" height="900" xmlns="http://www.w3.org/2000/svg" xmlns:xlink="http://www.w3.org/1999/xlink" version="1.1"><rect x="0" y="0" width="900" height="900" fill="#000000"></rect><path d="M0 549L113 549L113 505L225 505L225 576L338 576L338 515L450 515L450 565L563 565L563 577L675 577L675 575L788 575L788 524L900 524L900 544L900 901L900 901L788 901L788 901L675 901L675 901L563 901L563 901L450 901L450 901L338 901L338 901L225 901L225 901L113 901L113 901L0 901Z" fill="#323232"></path><path d="M0 565L113 565L113 538L225 538L225 535L338 535L338 527L450 527L450 552L563 552L563 529L675 529L675 543L788 543L788 558L900 558L900 597L900 901L900 901L788 901L788 901L675 901L675 901L563 901L563 901L450 901L450 901L338 901L338 901L225 901L225 901L113 901L113 901L0 901Z" fill="#2a2a2a"></path><path d="M0 623L113 623L113 595L225 595L225 575L338 575L338 590L450 590L450 629L563 629L563 554L675 554L675 646L788 646L788 613L900 613L900 573L900 901L900 901L788 901L788 901L675 901L675 901L563 901L563 901L450 901L450 901L338 901L338 901L225 901L225 901L113 901L113 901L0 901Z" fill="#222222"></path><path d="M0 616L113 616L113 660L225 660L225 673L338 673L338 682L450 682L450 640L563 640L563 636L675 636L675 618L788 618L788 615L900 615L900 669L900 901L900 901L788 901L788 901L675 901L675 901L563 901L563 901L450 901L450 901L338 901L338 901L225 901L225 901L113 901L113 901L0 901Z" fill="#1b1b1b"></path><path d="M0 648L113 648L113 660L225 660L225 693L338 693L338 661L450 661L450 706L563 706L563 662L675 662L675 698L788 698L788 679L900 679L900 714L900 901L900 901L788 901L788 901L675 901L675 901L563 901L563 901L450 901L450 901L338 901L338 901L225 901L225 901L113 901L113 901L0 901Z" fill="#131313"></path><path d="M0 700L113 700L113 709L225 709L225 688L338 688L338 744L450 744L450 731L563 731L563 672L675 672L675 679L788 679L788 731L900 731L900 699L900 901L900 901L788 901L788 901L675 901L675 901L563 901L563 901L450 901L450 901L338 901L338 901L225 901L225 901L113 901L113 901L0 901Z" fill="#0e0e0e"></path><path d="M0 743L113 743L113 782L225 782L225 732L338 732L338 780L450 780L450 759L563 759L563 751L675 751L675 761L788 761L788 774L900 774L900 783L900 901L900 901L788 901L788 901L675 901L675 901L563 901L563 901L450 901L450 901L338 901L338 901L225 901L225 901L113 901L113 901L0 901Z" fill="#0d0d0d"></path><path d="M0 819L113 819L113 786L225 786L225 763L338 763L338 788L450 788L450 763L563 763L563 755L675 755L675 807L788 807L788 799L900 799L900 788L900 901L900 901L788 901L788 901L675 901L675 901L563 901L563 901L450 901L450 901L338 901L338 901L225 901L225 901L113 901L113 901L0 901Z" fill="#0c0c0c"></path><path d="M0 808L113 808L113 833L225 833L225 832L338 832L338 811L450 811L450 798L563 798L563 848L675 848L675 795L788 795L788 833L900 833L900 792L900 901L900 901L788 901L788 901L675 901L675 901L563 901L563 901L450 901L450 901L338 901L338 901L225 901L225 901L113 901L113 901L0 901Z" fill="#0c0c0c"></path><path d="M0 849L113 849L113 841L225 841L225 847L338 847L338 832L450 832L450 864L563 864L563 832L675 832L675 854L788 854L788 875L900 875L900 850L900 901L900 901L788 901L788 901L675 901L675 901L563 901L563 901L450 901L450 901L338 901L338 901L225 901L225 901L113 901L113 901L0 901Z" fill="#0b0b0b"></path></svg>